<?xml version="1.0" standalone="no"?><svg xmlns="http://www.w3.org/2000/svg" viewBox="0 0 1440 320"><path fill="#f3f4f5" fill-opacity="1" d="M0,256L21.8,256C43.6,256,87,256,131,229.3C174.5,203,218,149,262,112C305.5,75,349,53,393,69.3C436.4,85,480,139,524,160C567.3,181,611,171,655,160C698.2,149,742,139,785,160C829.1,181,873,235,916,250.7C960,267,1004,245,1047,208C1090.9,171,1135,117,1178,96C1221.8,75,1265,85,1309,85.3C1352.7,85,1396,75,1418,69.3L1440,64L1440,320L1418.2,320C1396.4,320,1353,320,1309,320C1265.5,320,1222,320,1178,320C1134.5,320,1091,320,1047,320C1003.6,320,960,320,916,320C872.7,320,829,320,785,320C741.8,320,698,320,655,320C610.9,320,567,320,524,320C480,320,436,320,393,320C349.1,320,305,320,262,320C218.2,320,175,320,131,320C87.3,320,44,320,22,320L0,320Z"></path></svg>